<svg xmlns="http://www.w3.org/2000/svg" xmlns:xlink="http://www.w3.org/1999/xlink" width="500" zoomAndPan="magnify" viewBox="0 0 375 374.999991" height="500" preserveAspectRatio="xMidYMid meet" version="1.0"><defs><g/><clipPath id="id1"><path d="M 112.019531 119 L 262.769531 119 L 262.769531 291.988281 L 112.019531 291.988281 Z M 112.019531 119 " clip-rule="nonzero"/></clipPath></defs><path fill="#ffffff" d="M 187.589844 289.417969 C 147.320312 289.417969 114.558594 256.613281 114.558594 216.289062 L 114.558594 121.863281 L 260.625 121.863281 L 260.625 216.289062 C 260.625 256.613281 227.863281 289.417969 187.589844 289.417969 Z M 187.589844 289.417969 " fill-opacity="1" fill-rule="nonzero"/><path fill="#bf0606" d="M 127.097656 135.226562 L 127.097656 216.289062 C 127.097656 249.242188 153.875 276.054688 186.785156 276.054688 C 219.699219 276.054688 246.472656 249.242188 246.472656 216.289062 L 246.472656 135.226562 Z M 127.097656 135.226562 " fill-opacity="1" fill-rule="nonzero"/><path fill="#cb8214" d="M 153.304688 258.117188 L 162.160156 262.480469 L 217.515625 260.335938 L 222.035156 257.703125 L 221.011719 263.367188 C 221.011719 263.367188 204.40625 274.976562 195.09375 274.738281 C 185.777344 274.496094 163.203125 272.84375 159.273438 270.074219 C 155.339844 267.300781 151.703125 264.679688 151.703125 264.679688 Z M 153.304688 258.117188 " fill-opacity="1" fill-rule="nonzero"/><g clip-path="url(#id1)"><path fill="#000000" d="M 187.394531 291.765625 C 145.832031 291.765625 112.019531 257.90625 112.019531 216.289062 L 112.019531 119.515625 L 262.773438 119.515625 L 262.773438 216.289062 C 262.773438 257.90625 228.960938 291.765625 187.394531 291.765625 Z M 116.707031 124.210938 L 116.707031 216.289062 C 116.707031 255.316406 148.417969 287.070312 187.394531 287.070312 C 226.375 287.070312 258.085938 255.316406 258.085938 216.289062 L 258.085938 124.210938 Z M 187.394531 278.402344 C 153.191406 278.402344 125.363281 250.539062 125.363281 216.289062 L 125.363281 132.878906 L 249.429688 132.878906 L 249.429688 216.289062 C 249.429688 250.539062 221.601562 278.402344 187.394531 278.402344 Z M 130.050781 137.574219 L 130.050781 216.289062 C 130.050781 247.949219 155.777344 273.707031 187.394531 273.707031 C 219.015625 273.707031 244.738281 247.949219 244.738281 216.289062 L 244.738281 137.574219 Z M 130.050781 137.574219 " fill-opacity="1" fill-rule="nonzero"/></g><path fill="#ffffff" d="M 168.820312 130.824219 L 167.191406 131.359375 C 167.191406 131.359375 167.011719 134.644531 167.421875 136.582031 C 167.828125 138.519531 170.21875 140.378906 170.21875 140.378906 C 170.21875 140.378906 170.851562 143.652344 171.21875 145.996094 C 171.589844 148.339844 173.804688 149.941406 173.804688 149.941406 L 173.683594 157.953125 C 173.683594 157.953125 172.082031 159.433594 172.082031 159.804688 C 172.082031 160.175781 171.835938 165.230469 171.835938 165.230469 L 176.144531 171.148438 L 198.800781 166.707031 L 197.269531 157.292969 C 197.269531 157.292969 196.957031 155.734375 196.957031 155.367188 C 196.957031 154.996094 196.09375 149.324219 196.09375 149.324219 L 198.1875 145.625 L 198.925781 138.84375 C 200.894531 140.078125 203.113281 136.253906 203.234375 132.925781 C 203.359375 129.597656 200.15625 129.597656 200.15625 129.597656 L 200.789062 125.734375 C 200.789062 125.734375 196.214844 122.570312 193.753906 121.089844 C 191.292969 119.613281 180.824219 120.105469 176.761719 121.707031 C 172.699219 123.308594 169.988281 125.777344 170.367188 127.46875 C 170.746094 129.160156 169.988281 131.199219 170.234375 131.570312 Z M 168.820312 130.824219 " fill-opacity="1" fill-rule="nonzero"/><path fill="#ffffff" d="M 138.785156 212.078125 C 139.824219 211.75 152.003906 213.117188 153.578125 214.25 L 153.132812 218.054688 L 154.976562 219.277344 C 154.976562 219.277344 157.589844 222.785156 156.9375 223.945312 C 156.28125 225.105469 155.214844 226.207031 155.214844 226.207031 L 152.035156 225.671875 L 150.339844 224.808594 L 149.191406 243.265625 C 149.191406 243.265625 147.058594 242.828125 145.53125 240.476562 C 144.003906 238.125 142.691406 236.15625 142.691406 236.15625 C 142.691406 236.15625 136.140625 232.875 135.867188 228.941406 C 135.59375 225.003906 137.667969 219.480469 137.667969 219.480469 L 138.652344 216.585938 Z M 215.292969 222.722656 C 215.144531 223.398438 216.417969 224.601562 217.769531 225.425781 C 219.121094 226.253906 221.222656 224.375 221.449219 224.300781 C 221.671875 224.222656 225.726562 238.351562 225.726562 238.351562 L 227.226562 235.648438 L 231.804688 238.050781 C 231.804688 238.050781 234.058594 237.824219 236.683594 236.246094 C 239.308594 234.667969 239.761719 228.058594 239.761719 225.425781 C 239.761719 222.796875 235.558594 217.835938 235.558594 217.835938 L 235.707031 210.847656 L 217.75 214.605469 C 217.75 214.605469 217.246094 217.609375 217.308594 218.21875 C 217.308594 218.21875 215.445312 222.046875 215.292969 222.722656 Z M 215.292969 222.722656 " fill-opacity="1" fill-rule="nonzero"/><path fill="#cb8214" d="M 172.859375 157.359375 L 171.972656 157.867188 L 169.125 160.339844 L 148.992188 168.707031 C 148.992188 168.707031 146.585938 170.925781 144.304688 173.460938 C 142.027344 176 138.671875 184.683594 138.671875 184.683594 C 138.671875 184.683594 136.328125 196.03125 135.886719 198.3125 C 135.441406 200.59375 135.316406 212.195312 135.316406 212.195312 L 148.042969 212.765625 L 153.421875 214.859375 L 153.359375 216.632812 C 153.359375 216.632812 153.234375 218.027344 153.992188 218.472656 C 154.753906 218.917969 157.160156 222.023438 157.160156 222.023438 L 215.089844 222.214844 L 217.308594 218.21875 L 217.75 214.605469 L 238.390625 210.546875 C 238.390625 210.546875 236.300781 196.730469 236.175781 196.09375 C 236.046875 195.460938 227.878906 171.941406 225.726562 169.34375 C 223.574219 166.742188 203.503906 159.390625 203.503906 159.390625 L 198.503906 155.964844 C 198.503906 155.964844 195.402344 160.71875 194.578125 161.671875 C 193.753906 162.621094 184.699219 168.390625 184.699219 168.390625 C 184.699219 168.390625 181.914062 166.617188 181.660156 166.550781 C 181.40625 166.488281 172.925781 158.4375 172.925781 158.4375 Z M 168.484375 125.445312 C 168.628906 118.046875 168.917969 107.167969 183.117188 105.570312 C 197.3125 103.976562 202.382812 119.207031 200.789062 125.734375 C 200.433594 126.875 198.960938 126.996094 197.207031 126.179688 C 195.449219 125.359375 190.425781 123.398438 189.242188 122.90625 C 188.058594 122.417969 184.21875 121.476562 182.261719 122.375 C 180.300781 123.273438 172.582031 127.773438 171.234375 128.101562 C 169.886719 128.425781 168.824219 127.855469 168.785156 127.324219 C 168.742188 126.792969 168.484375 125.445312 168.484375 125.445312 Z M 168.484375 125.445312 " fill-opacity="1" fill-rule="nonzero"/><path fill="#000000" d="M 190.367188 145.726562 C 190.660156 145.945312 185.480469 145.738281 184.398438 145.726562 C 182.105469 145.699219 179.519531 145.726562 178.136719 146.164062 C 178.863281 145.652344 182.433594 143.683594 183.234375 143.902344 C 184.035156 144.121094 184.296875 144.296875 185.183594 143.882812 C 186.070312 143.464844 189.179688 145.101562 190.367188 145.726562 Z M 197.574219 138.4375 C 198.304688 137.414062 199.105469 136.175781 199.105469 136.175781 L 200.011719 137.199219 C 200.011719 137.199219 199.832031 135.375 200.011719 134.921875 C 200.195312 134.464844 201.214844 134.921875 201.214844 134.921875 C 201.214844 134.921875 200.707031 134.0625 200.628906 133.40625 C 200.550781 132.75 201.652344 133.625 201.652344 133.625 C 201.652344 133.625 201.289062 131.585938 200.628906 131.4375 C 199.96875 131.292969 200.011719 132.878906 200.011719 132.878906 C 200.011719 132.878906 199.320312 131.804688 199.320312 132.878906 C 199.320312 133.953125 197.574219 136.394531 196.265625 138 C 194.953125 139.601562 194.472656 141.539062 194.445312 143.816406 C 194.664062 141.6875 196.847656 139.457031 197.574219 138.4375 Z M 172.722656 129.03125 C 172.714844 129.046875 172.699219 129.0625 172.695312 129.070312 C 172.683594 129.105469 172.699219 129.085938 172.722656 129.03125 Z M 188.546875 129.617188 C 188.328125 129.25 189.128906 128.523438 189.421875 129.089844 C 189.710938 129.652344 189.710938 130.199219 191.058594 130.382812 C 192.40625 130.5625 192.1875 129.507812 192.625 129.289062 C 193.0625 129.070312 193.898438 129.542969 194.445312 129.773438 C 193.570312 128.507812 192.152344 128.085938 190.769531 128.011719 C 189.382812 127.9375 187.816406 128.519531 187.230469 129.648438 C 187.949219 130.191406 188.765625 129.980469 188.546875 129.617188 Z M 180.175781 148.058594 C 181.414062 150.976562 187.230469 150.320312 187.964844 148.058594 C 185.792969 149.035156 181.230469 148.929688 180.175781 148.058594 Z M 171.65625 134.574219 C 171.074219 133.917969 170.929688 134.792969 169.910156 133.40625 C 168.890625 132.023438 168.527344 133.699219 168.453125 134.574219 C 169.035156 133.699219 169.910156 134.644531 169.582031 134.921875 C 169.253906 135.195312 168.816406 136.394531 169.582031 136.542969 C 170.34375 136.6875 170.355469 138.289062 170.355469 138.289062 C 170.355469 138.289062 170.492188 135.738281 170.710938 136.832031 C 170.929688 137.925781 170.96875 138.757812 172.367188 139.996094 C 173.765625 141.234375 173.273438 142.988281 174.496094 145.652344 C 174.496094 145.144531 174.046875 140.222656 172.820312 138.90625 C 171.585938 137.582031 171.875 136.394531 171.65625 134.574219 Z M 182.371094 169.828125 L 174.496094 173.90625 C 174.496094 173.90625 169.867188 168.082031 169.582031 162.113281 C 167.988281 168.496094 173.929688 176.46875 173.929688 176.46875 Z M 188.625 197.203125 L 181.792969 197.203125 C 181.792969 197.203125 185.339844 172.230469 183.828125 169.828125 L 180.335938 198.949219 Z M 238.613281 234.792969 C 237.140625 236.945312 235.378906 238.199219 233.382812 238.527344 C 230.835938 238.941406 228.621094 237.722656 227.429688 236.859375 C 227.34375 236.855469 227.269531 236.851562 227.199219 236.847656 C 227.078125 237.113281 226.972656 237.371094 226.886719 237.613281 C 226.957031 237.90625 226.996094 238.234375 226.9375 238.570312 L 229.058594 244.855469 C 229.0625 244.863281 229.0625 244.875 229.0625 244.882812 C 229.078125 244.9375 229.089844 244.992188 229.09375 245.046875 C 229.09375 245.054688 229.097656 245.066406 229.097656 245.074219 L 229.390625 252.9375 C 229.402344 253.222656 229.253906 253.492188 229.003906 253.636719 L 222.035156 257.703125 L 222.367188 264.828125 C 222.378906 265.109375 222.238281 265.378906 221.996094 265.527344 C 210.085938 272.796875 195.070312 275.738281 185.828125 276.050781 C 185.027344 276.078125 184.238281 276.089844 183.460938 276.089844 C 163.496094 276.089844 152.339844 267.492188 151.859375 267.113281 C 151.625 266.929688 151.515625 266.625 151.578125 266.335938 C 151.585938 266.304688 152.195312 263.449219 152.355469 258.335938 C 151.121094 257.78125 149.738281 257.15625 148.171875 256.4375 C 147.882812 256.308594 147.703125 256.015625 147.714844 255.695312 L 148.179688 245.675781 C 148.011719 245.453125 147.964844 245.152344 148.085938 244.882812 C 148.121094 244.808594 148.171875 244.746094 148.222656 244.6875 L 148.292969 243.199219 C 144.851562 241.101562 143.917969 239.160156 142.875 236.925781 C 139.386719 236.285156 135.71875 233.121094 135.070312 227.28125 C 134.609375 223.117188 136.3125 219.703125 137.367188 218.042969 C 137.929688 217.15625 138.054688 214.558594 138.003906 212.714844 C 136.953125 212.75 136.007812 212.832031 135.246094 212.964844 C 135.019531 213.003906 134.785156 212.941406 134.613281 212.789062 C 134.4375 212.640625 134.335938 212.421875 134.339844 212.191406 C 134.460938 198.109375 136.53125 186.746094 140.492188 178.410156 C 141.917969 175.410156 144.320312 171.3125 147.679688 168.8125 L 147.734375 168.769531 C 148.90625 167.890625 165.054688 161.28125 168.589844 159.835938 L 172.28125 156.765625 C 172.472656 156.605469 172.730469 156.550781 172.972656 156.613281 C 172.996094 156.039062 173.03125 155.507812 173.0625 155.003906 C 173.179688 153.132812 173.261719 151.78125 172.832031 150.214844 C 172.777344 150.015625 172.808594 149.8125 172.898438 149.644531 C 172.582031 149.265625 172.269531 148.914062 171.960938 148.609375 C 170.257812 146.902344 169.550781 144.589844 169.644531 140.957031 C 168.601562 140.667969 167.6875 139.742188 167.007812 138.269531 C 165.898438 135.859375 165.605469 132.320312 166.941406 130.898438 C 167.535156 130.265625 168.167969 130.167969 168.59375 130.199219 C 168.851562 130.21875 169.09375 130.285156 169.320312 130.386719 C 169.242188 129.832031 169.128906 129.105469 168.976562 128.15625 C 168.957031 128.117188 168.941406 128.078125 168.921875 128.035156 L 168.730469 128.035156 C 168.308594 128.035156 167.964844 127.699219 167.953125 127.277344 C 167.6875 116.339844 169.449219 106.046875 184 104.757812 C 188.695312 104.34375 192.605469 105.488281 195.625 108.152344 C 200.6875 112.628906 201.996094 120.15625 202.199219 125.683594 C 202.207031 125.917969 202.109375 126.144531 201.929688 126.300781 L 201.136719 126.980469 L 200.941406 128.597656 C 201.390625 128.570312 201.847656 128.6875 202.269531 128.945312 C 203.460938 129.679688 204.429688 131.683594 203.5625 135.113281 C 202.917969 137.648438 201.75 139.285156 200.359375 139.59375 C 200.144531 139.640625 199.9375 139.65625 199.734375 139.636719 C 199.691406 141.9375 199.296875 146.679688 196.953125 149.046875 C 196.875 151.480469 197.484375 153.472656 198.039062 154.957031 C 198.078125 154.925781 198.113281 154.894531 198.152344 154.871094 C 198.417969 154.734375 198.738281 154.757812 198.976562 154.9375 L 203.960938 158.644531 C 205.722656 159.210938 222.546875 164.707031 226.445312 169.328125 C 228.523438 171.792969 231.511719 178.367188 234.058594 186.074219 C 235.777344 191.277344 238.742188 201.414062 239.277344 210.84375 C 239.289062 211.070312 239.203125 211.292969 239.039062 211.449219 C 238.871094 211.605469 238.644531 211.683594 238.421875 211.660156 C 238.035156 211.621094 237.375 211.640625 236.519531 211.707031 C 236.480469 213.066406 236.414062 216.089844 236.492188 217.648438 C 241.113281 221.753906 242.121094 229.671875 238.613281 234.792969 Z M 196.921875 156.363281 C 196.402344 155.054688 195.601562 153.023438 195.425781 150.464844 C 193.511719 152.273438 192.089844 153.921875 191.03125 155.570312 C 190.652344 156.160156 190.210938 156.609375 189.710938 156.960938 C 188.066406 158.820312 185.585938 160.621094 183.421875 161.035156 C 181.140625 161.476562 179.984375 162.742188 179.433594 163.644531 C 181.675781 165.535156 183.949219 167.152344 185.054688 167.644531 C 185.777344 167.109375 186.640625 166.507812 187.546875 165.875 C 190.9375 163.511719 195.761719 160.144531 197.269531 157.292969 C 197.1875 157.042969 197.0625 156.722656 196.921875 156.363281 Z M 173.066406 115.699219 C 173.066406 115.699219 178.5 110.71875 182.859375 109.722656 C 181.085938 110.910156 176.804688 117.253906 176.664062 117.460938 C 176.820312 117.230469 183.320312 115.238281 183.320312 115.238281 C 182.09375 116.019531 180.101562 118.136719 179.109375 119.230469 C 180.847656 118.804688 182.777344 118.582031 184.878906 118.675781 C 192.253906 118.996094 198.421875 121.980469 200.574219 124.398438 C 200.101562 117.652344 198.003906 112.328125 194.597656 109.316406 C 191.910156 106.945312 188.390625 105.933594 184.136719 106.308594 C 179.570312 106.710938 176.355469 108.039062 174.121094 110.128906 C 173.738281 112.03125 173.066406 115.699219 173.066406 115.699219 Z M 170.367188 127.46875 C 170.671875 127.902344 173.367188 126.222656 174.664062 125.414062 C 177.441406 123.6875 180.898438 121.535156 184.207031 121.296875 C 187.792969 121.039062 191.972656 122.894531 195.332031 124.386719 C 196.960938 125.109375 199.148438 126.078125 199.828125 126 C 199.414062 124.773438 193.589844 120.609375 184.8125 120.226562 C 180.761719 120.054688 177.382812 121.136719 174.90625 122.574219 C 173.980469 123.261719 173 123.992188 172.121094 124.652344 C 171.59375 125.164062 171.175781 125.667969 170.871094 126.132812 C 170.328125 126.957031 170.335938 127.398438 170.367188 127.46875 Z M 177.832031 154.507812 C 178.390625 155.746094 180.527344 156.484375 183.695312 156.53125 C 186.96875 156.582031 188.703125 156.324219 189.726562 154.730469 C 191.085938 152.613281 192.96875 150.523438 195.65625 148.152344 C 195.664062 148.144531 195.667969 148.140625 195.675781 148.132812 C 198.007812 146.074219 198.269531 140.421875 198.175781 138.417969 C 198.160156 138.082031 198.359375 137.773438 198.671875 137.65625 C 198.984375 137.535156 199.339844 137.628906 199.550781 137.886719 C 199.730469 138.109375 199.898438 138.105469 200.019531 138.078125 C 200.488281 137.972656 201.445312 137.152344 202.058594 134.730469 C 202.675781 132.285156 202.203125 130.726562 201.457031 130.269531 C 201.0625 130.027344 200.730469 130.191406 200.523438 130.375 C 200.28125 130.585938 199.933594 130.625 199.648438 130.476562 C 199.367188 130.324219 199.203125 130.015625 199.242188 129.695312 L 199.507812 127.523438 C 198.792969 127.460938 197.90625 127.167969 196.839844 126.730469 C 196.90625 126.792969 196.972656 126.851562 197.023438 126.914062 L 196.679688 126.664062 C 196.078125 126.414062 195.421875 126.125 194.703125 125.808594 C 194.617188 125.769531 194.527344 125.730469 194.4375 125.691406 C 193.21875 125.398438 191.871094 125.296875 190.957031 125.441406 C 189.203125 125.726562 186.808594 127.257812 186.808594 127.257812 C 186.808594 127.257812 185.855469 126.195312 185.792969 125.878906 C 187.746094 124.679688 189.488281 124.265625 190.84375 124.183594 C 188.613281 123.339844 186.3125 122.707031 184.320312 122.847656 C 182.128906 123.003906 179.746094 124.183594 177.582031 125.457031 C 178.984375 125.558594 182.105469 126.195312 182.105469 126.195312 L 182.105469 127.472656 C 182.105469 127.472656 178.675781 126.335938 177.160156 126.585938 C 175.703125 126.824219 172.996094 128.679688 172.722656 129.03125 C 172.792969 128.898438 172.964844 128.53125 173.148438 128.136719 C 172.214844 128.644531 171.390625 129 170.695312 129.066406 C 171.257812 132.632812 171.183594 132.667969 170.601562 132.917969 C 170.277344 133.058594 169.894531 132.960938 169.675781 132.679688 C 169.410156 132.304688 168.867188 131.773438 168.480469 131.75 C 168.425781 131.746094 168.285156 131.734375 168.074219 131.960938 C 167.390625 132.6875 167.414062 135.445312 168.417969 137.621094 C 168.683594 138.199219 169.414062 139.542969 170.414062 139.496094 C 170.425781 139.496094 170.4375 139.496094 170.449219 139.496094 C 170.65625 139.496094 170.851562 139.578125 171 139.726562 C 171.152344 139.878906 171.234375 140.09375 171.222656 140.3125 C 171.039062 143.882812 171.585938 146.035156 173.058594 147.507812 C 174.910156 149.363281 176.9375 152.519531 177.832031 154.507812 Z M 138.675781 211.164062 C 138.6875 211.164062 138.695312 211.160156 138.703125 211.160156 C 138.738281 211.15625 138.773438 211.160156 138.808594 211.160156 C 143.914062 211.125 151.1875 212.011719 154.3125 214.179688 C 154.347656 214.203125 154.371094 214.234375 154.398438 214.261719 C 154.765625 210.535156 157.015625 186.210938 154.238281 180.960938 C 155.578125 182.523438 159.921875 192.007812 159.808594 196.132812 C 160.8125 194.90625 162.707031 190.890625 163.820312 187.878906 C 164.601562 190 164.042969 197.25 162.371094 203.273438 C 163.265625 202.601562 167.941406 198.808594 169.613281 196.800781 C 169.949219 199.589844 166.828125 207.734375 165.269531 210.523438 C 166.496094 209.964844 170.839844 207.84375 172.84375 206.839844 C 171.84375 210.96875 165.269531 217.105469 165.269531 217.105469 L 171.378906 221.324219 L 209.824219 221.324219 C 211.199219 219.242188 214.167969 214.367188 214.167969 211.171875 C 214.167969 207.015625 209.800781 193.238281 211.546875 189.082031 C 213.292969 184.929688 216.789062 179.242188 216.789062 179.242188 C 215.257812 184.273438 214.605469 194.550781 215.257812 196.738281 C 217.007812 193.238281 220.28125 190.175781 220.28125 190.175781 C 218.535156 195.863281 217.878906 203.078125 218.316406 205.921875 C 220.71875 202.859375 225.089844 201.332031 225.089844 201.332031 C 225.089844 201.332031 221.042969 210.585938 220.914062 212.800781 C 225.226562 211.675781 231.667969 210.605469 235.605469 210.230469 C 235.664062 210.21875 235.726562 210.210938 235.789062 210.214844 C 236.519531 210.148438 237.160156 210.105469 237.675781 210.09375 C 236.558594 194.503906 228.832031 174.570312 225.257812 170.332031 C 221.519531 165.894531 203.550781 160.144531 203.367188 160.085938 C 203.285156 160.0625 203.210938 160.019531 203.140625 159.96875 L 199.085938 156.953125 C 197.992188 160.484375 192.746094 164.140625 188.433594 167.152344 C 187.394531 167.875 186.410156 168.5625 185.652344 169.136719 C 185.460938 169.285156 185.210938 169.332031 184.980469 169.269531 C 182.988281 168.722656 175.921875 163.285156 173.089844 159.4375 C 173.078125 159.425781 173.070312 159.414062 173.0625 159.402344 C 172.855469 159.121094 172.671875 158.851562 172.515625 158.589844 L 169.492188 161.109375 C 169.429688 161.160156 169.359375 161.199219 169.289062 161.230469 C 161.785156 164.292969 149.550781 169.382812 148.664062 170.015625 L 148.605469 170.058594 C 145.71875 172.210938 136.339844 181.5 135.898438 211.308594 C 136.695312 211.222656 137.640625 211.175781 138.675781 211.164062 Z M 156.96875 220.953125 C 157.023438 221.074219 157.082031 221.199219 157.136719 221.324219 C 157.097656 221.199219 157.035156 221.074219 156.96875 220.953125 Z M 141.847656 235.011719 C 139.910156 230.691406 142.210938 227.691406 143.515625 225.992188 C 144.742188 224.398438 145.324219 222.261719 145.945312 220 L 146.144531 219.269531 C 146.421875 218.277344 146.984375 217.488281 147.769531 216.964844 C 145.808594 216.859375 142.371094 217.652344 141.578125 218.71875 C 143.449219 215.597656 148.683594 215.433594 150.757812 216.332031 C 151.382812 216.417969 152.011719 216.617188 152.621094 216.929688 L 153 215.1875 C 150.191406 213.574219 144.210938 212.738281 139.554688 212.699219 C 139.597656 214.246094 139.5625 217.480469 138.675781 218.875 C 137.730469 220.367188 136.203125 223.417969 136.613281 227.109375 C 137.085938 231.398438 139.382812 234 141.847656 235.011719 Z M 149.171875 224.101562 C 149.183594 223.804688 149.367188 223.542969 149.636719 223.425781 C 149.910156 223.308594 150.222656 223.355469 150.449219 223.546875 C 150.46875 223.5625 152.34375 225.15625 153.988281 225.410156 C 154.707031 225.519531 155.265625 225.320312 155.648438 224.816406 C 156.128906 224.183594 156.25 223.132812 155.929688 222.421875 L 155.921875 222.402344 L 155.78125 222.089844 C 155.125 220.628906 154.609375 219.476562 152.898438 218.90625 C 152.882812 218.898438 152.871094 218.890625 152.855469 218.886719 C 152.832031 218.875 152.808594 218.867188 152.789062 218.855469 C 152.761719 218.839844 152.734375 218.824219 152.710938 218.808594 C 152.699219 218.800781 152.683594 218.792969 152.671875 218.785156 C 151.550781 217.925781 150.253906 217.625 149.203125 217.976562 C 148.417969 218.242188 147.875 218.832031 147.640625 219.6875 L 147.441406 220.410156 C 146.78125 222.824219 146.15625 225.101562 144.746094 226.941406 C 143.34375 228.761719 141.230469 231.511719 144.050781 235.796875 C 144.0625 235.816406 144.074219 235.839844 144.082031 235.859375 C 144.089844 235.871094 144.097656 235.878906 144.105469 235.890625 L 144.257812 236.222656 C 145.195312 238.226562 145.90625 239.738281 148.375 241.414062 Z M 220.792969 264.4375 L 220.519531 258.582031 L 217.515625 260.335938 C 217.40625 260.398438 217.28125 260.433594 217.15625 260.441406 C 216.667969 260.457031 213.789062 260.566406 209.582031 260.722656 L 179.765625 267.707031 L 189.371094 267.039062 C 189.371094 267.039062 172.96875 272.882812 172.601562 272.957031 C 171.230469 273.09375 155.621094 266.449219 153.308594 265.460938 C 153.265625 265.746094 153.226562 265.980469 153.191406 266.164062 C 155.378906 267.699219 166.976562 275.132812 185.777344 274.496094 C 194.730469 274.195312 209.207031 271.378906 220.792969 264.4375 Z M 227.589844 246.21875 L 216.960938 250.300781 C 216.878906 250.332031 216.792969 250.351562 216.707031 250.351562 L 161.902344 251.992188 C 161.894531 251.992188 161.886719 251.992188 161.878906 251.992188 C 161.769531 251.992188 161.660156 251.96875 161.558594 251.921875 L 149.695312 246.476562 L 149.289062 255.242188 C 150.558594 255.820312 152.003906 256.472656 153.457031 257.128906 C 153.460938 257.128906 153.464844 257.132812 153.46875 257.132812 C 157.453125 258.921875 161.519531 260.714844 162.230469 260.921875 C 164.46875 260.859375 213.394531 259.027344 216.902344 258.894531 L 227.820312 252.53125 Z M 220.773438 225.160156 C 219.648438 225.777344 217.707031 226.570312 216.390625 225.648438 C 215.378906 224.9375 214.863281 224.039062 214.828125 222.875 L 157.628906 222.875 C 157.734375 223.882812 157.476562 224.972656 156.886719 225.753906 C 156.15625 226.71875 155.042969 227.144531 153.753906 226.945312 C 152.625 226.769531 151.480469 226.15625 150.652344 225.621094 L 149.769531 244.800781 L 162.039062 250.433594 L 216.527344 248.804688 L 227.351562 244.644531 Z M 235.242188 218.617188 C 235.082031 218.484375 234.980469 218.289062 234.964844 218.082031 C 234.855469 216.632812 234.921875 213.425781 234.960938 211.859375 C 229.960938 212.417969 221.492188 213.945312 218.421875 215.207031 L 218.226562 216.792969 C 220.898438 215.527344 223.105469 215.335938 224.6875 216.234375 C 229.777344 215.148438 233.074219 217.011719 233.773438 218.195312 C 233.695312 218.195312 232.570312 217.839844 232.488281 217.8125 C 231.5625 217.503906 228.707031 217.28125 226.230469 217.5625 C 227.75 219.238281 229.417969 221.996094 230.359375 224.527344 C 230.507812 224.929688 230.304688 225.375 229.902344 225.523438 C 229.8125 225.558594 229.722656 225.574219 229.632812 225.574219 C 229.316406 225.574219 229.023438 225.382812 228.90625 225.070312 C 227.828125 222.167969 225.582031 218.722656 224.101562 217.695312 C 222.855469 216.828125 220.578125 217.214844 217.839844 218.742188 C 216.953125 220.308594 216.542969 221.417969 216.417969 222.214844 C 216.414062 222.234375 216.414062 222.25 216.410156 222.265625 C 216.210938 223.621094 216.835938 224.0625 217.28125 224.375 C 217.949219 224.84375 219.671875 224.085938 220.679688 223.40625 C 221.78125 222.109375 223.722656 221.3125 223.804688 221.277344 C 224.203125 221.117188 224.65625 221.308594 224.816406 221.707031 C 224.976562 222.101562 224.785156 222.554688 224.386719 222.714844 C 224.375 222.722656 222.964844 223.304688 222.078125 224.175781 L 225.886719 235.460938 C 225.980469 235.421875 226.078125 235.394531 226.183594 235.371094 C 227.046875 233.652344 228.203125 231.863281 228.878906 231.058594 C 229.15625 230.730469 229.644531 230.6875 229.972656 230.964844 C 230.300781 231.242188 230.339844 231.730469 230.066406 232.058594 C 229.542969 232.679688 228.675781 234 227.933594 235.363281 C 228.019531 235.390625 228.105469 235.425781 228.175781 235.484375 C 229.117188 236.195312 231.011719 237.335938 233.136719 236.992188 C 234.695312 236.738281 236.109375 235.703125 237.335938 233.914062 C 240.480469 229.320312 239.503906 222.171875 235.242188 218.617188 Z M 181.703125 140.550781 C 182.648438 141.28125 183.84375 141.9375 184.777344 141.28125 C 185.707031 140.625 187.820312 140.769531 188.328125 140.332031 C 188.839844 139.894531 188.328125 137.414062 188.328125 137.414062 L 186.808594 134.921875 L 185.792969 128.292969 C 184.980469 130.78125 186.21875 137.925781 186.21875 138.144531 C 186.21875 138.363281 184.90625 139.894531 184.035156 140.113281 C 183.160156 140.332031 181.921875 139.75 181.628906 139.675781 C 181.386719 139.613281 180.074219 140.269531 179.652344 140.480469 C 179.996094 140.320312 180.941406 139.964844 181.703125 140.550781 Z M 179.652344 140.480469 C 179.570312 140.523438 179.519531 140.550781 179.519531 140.550781 C 179.519531 140.550781 179.570312 140.523438 179.652344 140.480469 Z M 198.359375 175.757812 C 199.378906 175.757812 203.671875 169.480469 203.542969 161.617188 C 203.300781 163.46875 198.660156 173.03125 198.09375 173.179688 C 197.527344 173.324219 189.933594 171.285156 188.625 169.828125 C 189.253906 172.808594 197.34375 175.757812 198.359375 175.757812 Z M 178.941406 129.820312 C 179.066406 129.476562 179.53125 129.695312 179.875 129.917969 C 180.21875 130.140625 179.945312 130.53125 179.945312 130.53125 C 179.945312 130.53125 180.707031 130.1875 181 129.867188 C 180.242188 128.9375 178.671875 128.691406 177.640625 128.738281 C 176.613281 128.789062 175.644531 129.070312 174.496094 130.347656 C 174.496094 130.347656 175.964844 129.15625 176.292969 129.867188 C 176.625 130.578125 177.101562 130.925781 177.9375 130.777344 C 178.769531 130.628906 178.820312 130.164062 178.941406 129.820312 Z M 178.941406 129.820312 " fill-opacity="1" fill-rule="nonzero"/><g fill="#ffffff" fill-opacity="1"><g transform="translate(40.541219, 122.178026)"><g><path d="M -3.46875 -52.78125 C -1.382812 -55.070312 0.972656 -57.050781 3.609375 -58.71875 C 6.242188 -60.394531 8.941406 -61.597656 11.703125 -62.328125 C 12.046875 -62.421875 12.429688 -62.507812 12.859375 -62.59375 C 13.285156 -62.675781 13.894531 -62.796875 14.6875 -62.953125 L 27.375 -17.75 L 30.921875 -67.03125 L 36.078125 -68.390625 L 30.125 -7.96875 L 18.890625 -5 L 5.546875 -55.421875 C 2.023438 -53.234375 -0.335938 -50.5 -1.546875 -47.21875 C -2.765625 -43.945312 -2.8125 -40.195312 -1.6875 -35.96875 C -1.445312 -35.03125 -1.171875 -34.234375 -0.859375 -33.578125 C -0.554688 -32.921875 -0.171875 -32.316406 0.296875 -31.765625 C 0.441406 -31.578125 0.535156 -31.445312 0.578125 -31.375 C 0.628906 -31.3125 0.660156 -31.257812 0.671875 -31.21875 C -2.078125 -30.488281 -4.234375 -30.53125 -5.796875 -31.34375 C -7.367188 -32.164062 -8.484375 -33.8125 -9.140625 -36.28125 C -9.785156 -38.738281 -9.609375 -41.414062 -8.609375 -44.3125 C -7.609375 -47.21875 -5.894531 -50.039062 -3.46875 -52.78125 Z M -3.46875 -52.78125 "/></g></g></g><g fill="#ffffff" fill-opacity="1"><g transform="translate(84.589754, 110.610532)"><g><path d="M 18.5 -38.40625 L 18.59375 -37.875 L 18.734375 -42 L 29.5625 -43.890625 L 28.59375 -17.375 C 28.582031 -16.90625 28.582031 -16.476562 28.59375 -16.09375 C 28.601562 -15.707031 28.644531 -15.316406 28.71875 -14.921875 C 28.90625 -13.804688 29.296875 -13.03125 29.890625 -12.59375 C 30.484375 -12.15625 31.3125 -12.03125 32.375 -12.21875 C 33.675781 -12.4375 34.742188 -13.253906 35.578125 -14.671875 C 36.421875 -16.085938 36.972656 -17.984375 37.234375 -20.359375 L 40.390625 -20.90625 C 39.578125 -16.007812 38.097656 -12.171875 35.953125 -9.390625 C 33.804688 -6.609375 31.050781 -4.925781 27.6875 -4.34375 C 25.53125 -3.96875 23.707031 -4.269531 22.21875 -5.25 C 20.726562 -6.238281 19.695312 -7.816406 19.125 -9.984375 C 17.96875 -7.398438 16.546875 -5.367188 14.859375 -3.890625 C 13.179688 -2.421875 11.257812 -1.492188 9.09375 -1.109375 C 5.988281 -0.566406 3.363281 -1.191406 1.21875 -2.984375 C -0.925781 -4.785156 -2.335938 -7.617188 -3.015625 -11.484375 C -3.503906 -14.296875 -3.585938 -17.304688 -3.265625 -20.515625 C -2.941406 -23.722656 -2.25 -26.710938 -1.1875 -29.484375 C 0.164062 -32.765625 1.929688 -35.40625 4.109375 -37.40625 C 6.296875 -39.414062 8.835938 -40.671875 11.734375 -41.171875 C 13.703125 -41.515625 15.269531 -41.4375 16.4375 -40.9375 C 17.601562 -40.445312 18.289062 -39.601562 18.5 -38.40625 Z M 18.46875 -34.609375 C 18.332031 -35.367188 17.941406 -35.984375 17.296875 -36.453125 C 16.648438 -36.929688 15.847656 -37.085938 14.890625 -36.921875 C 12.128906 -36.441406 10.082031 -33.707031 8.75 -28.71875 C 7.425781 -23.738281 7.15625 -18.992188 7.9375 -14.484375 C 8.28125 -12.523438 8.8125 -11.101562 9.53125 -10.21875 C 10.257812 -9.332031 11.328125 -9.015625 12.734375 -9.265625 C 14.035156 -9.492188 15.191406 -10.34375 16.203125 -11.8125 C 17.210938 -13.28125 17.753906 -15 17.828125 -16.96875 Z M 18.46875 -34.609375 "/></g></g></g><g fill="#ffffff" fill-opacity="1"><g transform="translate(122.894062, 103.9292)"><g><path d="M 17.71875 -9.890625 C 17.632812 -10.796875 17.640625 -11.941406 17.734375 -13.328125 C 17.835938 -14.722656 18.097656 -16.945312 18.515625 -20 C 18.953125 -22.957031 19.210938 -25.078125 19.296875 -26.359375 C 19.378906 -27.648438 19.378906 -28.722656 19.296875 -29.578125 C 19.171875 -30.847656 18.847656 -31.789062 18.328125 -32.40625 C 17.804688 -33.019531 17.097656 -33.285156 16.203125 -33.203125 C 14.972656 -33.085938 13.898438 -32.359375 12.984375 -31.015625 C 12.066406 -29.679688 11.378906 -27.894531 10.921875 -25.65625 L 8.0625 -0.765625 L -2.890625 0.265625 L 1.59375 -38.484375 L 12.53125 -39.515625 L 12.0625 -35.484375 C 13.195312 -37.035156 14.46875 -38.234375 15.875 -39.078125 C 17.28125 -39.921875 18.84375 -40.425781 20.5625 -40.59375 C 23.25 -40.84375 25.394531 -40.300781 27 -38.96875 C 28.613281 -37.644531 29.554688 -35.59375 29.828125 -32.8125 C 29.929688 -31.632812 29.914062 -30.234375 29.78125 -28.609375 C 29.65625 -26.992188 29.34375 -24.503906 28.84375 -21.140625 C 28.425781 -18.492188 28.164062 -16.625 28.0625 -15.53125 C 27.96875 -14.445312 27.953125 -13.550781 28.015625 -12.84375 C 28.117188 -11.78125 28.445312 -11.003906 29 -10.515625 C 29.550781 -10.035156 30.332031 -9.84375 31.34375 -9.9375 C 32.613281 -10.0625 33.664062 -10.59375 34.5 -11.53125 C 35.34375 -12.476562 36.210938 -14.378906 37.109375 -17.234375 L 40.296875 -17.53125 C 39.128906 -12.65625 37.5 -8.945312 35.40625 -6.40625 C 33.320312 -3.863281 30.679688 -2.441406 27.484375 -2.140625 C 24.648438 -1.867188 22.375 -2.429688 20.65625 -3.828125 C 18.945312 -5.234375 17.96875 -7.253906 17.71875 -9.890625 Z M 17.71875 -9.890625 "/></g></g></g><g fill="#ffffff" fill-opacity="1"><g transform="translate(160.004493, 100.347956)"><g><path d="M 10.109375 -13.078125 C 10.140625 -11.085938 10.441406 -9.597656 11.015625 -8.609375 C 11.585938 -7.628906 12.585938 -7.148438 14.015625 -7.171875 C 15.285156 -7.191406 16.519531 -7.804688 17.71875 -9.015625 C 18.925781 -10.234375 19.742188 -11.765625 20.171875 -13.609375 L 20.171875 -14 L 23.625 -31.546875 C 23.46875 -32.347656 23.113281 -32.988281 22.5625 -33.46875 C 22.019531 -33.945312 21.316406 -34.175781 20.453125 -34.15625 C 17.648438 -34.113281 15.207031 -31.734375 13.125 -27.015625 C 11.039062 -22.304688 10.035156 -17.660156 10.109375 -13.078125 Z M 24.265625 -35.0625 L 24.265625 -34.75 L 27.734375 -52.375 L 39 -54.09375 L 30.875 -12.71875 C 30.78125 -12.257812 30.707031 -11.835938 30.65625 -11.453125 C 30.613281 -11.066406 30.597656 -10.671875 30.609375 -10.265625 C 30.628906 -9.242188 30.882812 -8.519531 31.375 -8.09375 C 31.863281 -7.675781 32.671875 -7.476562 33.796875 -7.5 C 35.117188 -7.519531 36.300781 -8.125 37.34375 -9.3125 C 38.394531 -10.5 39.238281 -12.164062 39.875 -14.3125 L 43.078125 -14.359375 C 41.566406 -9.804688 39.570312 -6.363281 37.09375 -4.03125 C 34.613281 -1.695312 31.566406 -0.503906 27.953125 -0.453125 C 25.859375 -0.410156 24.148438 -0.953125 22.828125 -2.078125 C 21.515625 -3.203125 20.691406 -4.804688 20.359375 -6.890625 C 18.867188 -4.523438 17.1875 -2.742188 15.3125 -1.546875 C 13.445312 -0.347656 11.394531 0.269531 9.15625 0.3125 C 6 0.351562 3.5 -0.675781 1.65625 -2.78125 C -0.175781 -4.882812 -1.125 -7.894531 -1.1875 -11.8125 C -1.226562 -14.664062 -0.835938 -17.648438 -0.015625 -20.765625 C 0.796875 -23.890625 1.941406 -26.738281 3.421875 -29.3125 C 5.253906 -32.34375 7.40625 -34.679688 9.875 -36.328125 C 12.351562 -37.972656 15.066406 -38.816406 18.015625 -38.859375 C 20.003906 -38.890625 21.535156 -38.566406 22.609375 -37.890625 C 23.691406 -37.222656 24.242188 -36.28125 24.265625 -35.0625 Z M 24.265625 -35.0625 "/></g></g></g><g fill="#ffffff" fill-opacity="1"><g transform="translate(198.950148, 99.87092)"><g><path d="M 29.65625 -30 C 29.425781 -25.789062 27.5 -22.210938 23.875 -19.265625 C 20.257812 -16.328125 16.054688 -14.859375 11.265625 -14.859375 C 11.171875 -13.992188 11.097656 -13.34375 11.046875 -12.90625 C 10.992188 -12.476562 10.960938 -12.113281 10.953125 -11.8125 C 10.828125 -9.46875 11.128906 -7.789062 11.859375 -6.78125 C 12.597656 -5.769531 14.015625 -5.207031 16.109375 -5.09375 C 18.484375 -4.96875 20.703125 -5.398438 22.765625 -6.390625 C 24.835938 -7.378906 27.25 -9.285156 30 -12.109375 L 32.59375 -11.96875 C 29.394531 -7.332031 26.003906 -3.953125 22.421875 -1.828125 C 18.835938 0.296875 14.988281 1.25 10.875 1.03125 C 6.96875 0.820312 4.0625 -0.347656 2.15625 -2.484375 C 0.25 -4.617188 -0.59375 -7.695312 -0.375 -11.71875 C -0.226562 -14.613281 0.382812 -17.664062 1.46875 -20.875 C 2.5625 -24.082031 3.941406 -26.910156 5.609375 -29.359375 C 7.648438 -32.316406 10.019531 -34.5 12.71875 -35.90625 C 15.414062 -37.320312 18.390625 -37.945312 21.640625 -37.78125 C 24.441406 -37.625 26.507812 -36.910156 27.84375 -35.640625 C 29.175781 -34.378906 29.78125 -32.5 29.65625 -30 Z M 22.046875 -33.703125 C 20.316406 -33.785156 18.492188 -32.335938 16.578125 -29.359375 C 14.671875 -26.378906 13.171875 -22.753906 12.078125 -18.484375 C 15.035156 -18.523438 17.679688 -19.742188 20.015625 -22.140625 C 22.359375 -24.546875 23.613281 -27.320312 23.78125 -30.46875 C 23.84375 -31.539062 23.734375 -32.335938 23.453125 -32.859375 C 23.179688 -33.378906 22.710938 -33.660156 22.046875 -33.703125 Z M 22.046875 -33.703125 "/></g></g></g><g fill="#ffffff" fill-opacity="1"><g transform="translate(227.272561, 101.342307)"><g><path d="M 31.390625 -28.53125 C 31.203125 -26.8125 30.679688 -25.5 29.828125 -24.59375 C 28.984375 -23.695312 27.957031 -23.316406 26.75 -23.453125 C 26.332031 -23.492188 25.90625 -23.613281 25.46875 -23.8125 C 25.03125 -24.007812 24.601562 -24.289062 24.1875 -24.65625 C 24.582031 -25.4375 24.894531 -26.195312 25.125 -26.9375 C 25.363281 -27.675781 25.519531 -28.367188 25.59375 -29.015625 C 25.707031 -30.035156 25.617188 -30.828125 25.328125 -31.390625 C 25.035156 -31.960938 24.53125 -32.289062 23.8125 -32.375 C 21.582031 -32.613281 19.117188 -30.285156 16.421875 -25.390625 C 13.734375 -20.492188 12.132812 -15.75 11.625 -11.15625 C 11.363281 -8.820312 11.566406 -7.128906 12.234375 -6.078125 C 12.910156 -5.035156 14.289062 -4.398438 16.375 -4.171875 C 18.738281 -3.898438 20.984375 -4.195312 23.109375 -5.0625 C 25.234375 -5.925781 27.75 -7.6875 30.65625 -10.34375 L 33.234375 -10.046875 C 29.765625 -5.609375 26.179688 -2.429688 22.484375 -0.515625 C 18.796875 1.390625 14.90625 2.113281 10.8125 1.65625 C 6.914062 1.226562 4.078125 -0.109375 2.296875 -2.359375 C 0.515625 -4.609375 -0.148438 -7.726562 0.296875 -11.71875 C 0.617188 -14.601562 1.40625 -17.613281 2.65625 -20.75 C 3.90625 -23.894531 5.453125 -26.640625 7.296875 -28.984375 C 9.515625 -31.804688 12.007812 -33.84375 14.78125 -35.09375 C 17.5625 -36.351562 20.546875 -36.804688 23.734375 -36.453125 C 26.523438 -36.140625 28.5625 -35.3125 29.84375 -33.96875 C 31.125 -32.625 31.640625 -30.8125 31.390625 -28.53125 Z M 31.390625 -28.53125 "/></g></g></g><g fill="#ffffff" fill-opacity="1"><g transform="translate(255.404257, 104.382404)"><g><path d="M 0.984375 -11.78125 C 1.484375 -14.632812 2.472656 -17.582031 3.953125 -20.625 C 5.441406 -23.675781 7.210938 -26.3125 9.265625 -28.53125 C 11.640625 -31.15625 14.265625 -33.003906 17.140625 -34.078125 C 20.015625 -35.160156 23.054688 -35.421875 26.265625 -34.859375 C 29.460938 -34.296875 31.691406 -32.875 32.953125 -30.59375 C 34.210938 -28.3125 34.488281 -25.160156 33.78125 -21.140625 C 33.875 -21.066406 33.976562 -21.007812 34.09375 -20.96875 C 34.21875 -20.925781 34.382812 -20.882812 34.59375 -20.84375 C 36.132812 -20.570312 38.054688 -20.671875 40.359375 -21.140625 C 42.671875 -21.617188 44.867188 -22.34375 46.953125 -23.3125 L 47.28125 -21.171875 C 45.613281 -19.898438 43.515625 -18.921875 40.984375 -18.234375 C 38.460938 -17.546875 35.753906 -17.21875 32.859375 -17.25 C 31.085938 -10.59375 28.179688 -5.472656 24.140625 -1.890625 C 20.097656 1.691406 15.695312 3.066406 10.9375 2.234375 C 7.019531 1.546875 4.207031 0.0195312 2.5 -2.34375 C 0.800781 -4.707031 0.296875 -7.851562 0.984375 -11.78125 Z M 26.0625 -30.15625 C 23.65625 -30.570312 20.957031 -28.535156 17.96875 -24.046875 C 14.988281 -19.554688 13.117188 -15.132812 12.359375 -10.78125 C 11.941406 -8.414062 11.921875 -6.757812 12.296875 -5.8125 C 12.671875 -4.875 13.609375 -4.273438 15.109375 -4.015625 C 16.972656 -3.691406 19.007812 -4.882812 21.21875 -7.59375 C 23.425781 -10.3125 25.21875 -13.820312 26.59375 -18.125 C 25.90625 -18.394531 25.445312 -18.820312 25.21875 -19.40625 C 24.988281 -20 24.953125 -20.742188 25.109375 -21.640625 C 25.273438 -22.597656 25.617188 -23.394531 26.140625 -24.03125 C 26.671875 -24.664062 27.34375 -25.085938 28.15625 -25.296875 C 28.34375 -26.921875 28.28125 -28.09375 27.96875 -28.8125 C 27.65625 -29.539062 27.019531 -29.988281 26.0625 -30.15625 Z M 26.0625 -30.15625 "/></g></g></g><g fill="#ffffff" fill-opacity="1"><g transform="translate(287.518933, 110.163232)"><g><path d="M 32.828125 -51.1875 L 22.8125 -38.703125 L 17.21875 -40 L 25.03125 -53 Z M 32.828125 -51.1875 "/></g></g></g><g fill="#ffffff" fill-opacity="1"><g transform="translate(306.694416, 114.463942)"><g><path d="M 26.5625 -5.71875 C 26.394531 -5.125 26.222656 -4.617188 26.046875 -4.203125 C 25.867188 -3.785156 25.675781 -3.390625 25.46875 -3.015625 C 26.613281 -3.328125 27.738281 -3.664062 28.84375 -4.03125 C 29.957031 -4.40625 30.941406 -4.796875 31.796875 -5.203125 L 34.875 -4.328125 C 32.863281 -2.984375 30.722656 -1.828125 28.453125 -0.859375 C 26.191406 0.109375 23.71875 0.953125 21.03125 1.671875 C 19.300781 2.722656 17.300781 3.332031 15.03125 3.5 C 12.757812 3.675781 10.5 3.445312 8.25 2.8125 C 4.96875 1.882812 2.613281 0.253906 1.1875 -2.078125 C -0.238281 -4.421875 -0.566406 -6.9375 0.203125 -9.625 C 0.628906 -11.15625 1.382812 -12.4375 2.46875 -13.46875 C 3.550781 -14.507812 4.738281 -15.140625 6.03125 -15.359375 C 8.539062 -17.878906 11 -20.632812 13.40625 -23.625 C 15.8125 -26.613281 18.414062 -30.25 21.21875 -34.53125 L 32.515625 -32.9375 C 31.617188 -29.207031 30.835938 -25.796875 30.171875 -22.703125 C 29.515625 -19.609375 28.820312 -16.238281 28.09375 -12.59375 C 27.65625 -10.488281 27.34375 -9.007812 27.15625 -8.15625 C 26.976562 -7.3125 26.78125 -6.5 26.5625 -5.71875 Z M 19.40625 -26.46875 C 18.21875 -24.644531 16.859375 -22.769531 15.328125 -20.84375 C 13.796875 -18.925781 11.859375 -16.738281 9.515625 -14.28125 C 9.992188 -13.875 10.316406 -13.410156 10.484375 -12.890625 C 10.660156 -12.367188 10.664062 -11.816406 10.5 -11.234375 C 10.226562 -10.296875 9.671875 -9.550781 8.828125 -9 C 7.984375 -8.445312 7.117188 -8.296875 6.234375 -8.546875 C 5.742188 -8.679688 5.351562 -8.882812 5.0625 -9.15625 C 4.769531 -9.4375 4.59375 -9.738281 4.53125 -10.0625 C 4.007812 -8.25 3.988281 -6.835938 4.46875 -5.828125 C 4.945312 -4.816406 5.972656 -4.09375 7.546875 -3.65625 C 9.546875 -3.082031 11.273438 -3.222656 12.734375 -4.078125 C 14.203125 -4.941406 15.25 -6.472656 15.875 -8.671875 C 16.070312 -9.367188 16.242188 -10.070312 16.390625 -10.78125 C 16.546875 -11.5 16.785156 -12.71875 17.109375 -14.4375 C 17.523438 -16.800781 17.910156 -18.882812 18.265625 -20.6875 C 18.617188 -22.5 19 -24.425781 19.40625 -26.46875 Z M 19.40625 -26.46875 "/></g></g></g><g fill="#ffffff" fill-opacity="1"><g transform="translate(129.973249, 327.344675)"><g><path d="M 9.140625 -19.4375 C 11.179688 -19.4375 12.820312 -18.957031 14.0625 -18 C 15.3125 -17.039062 15.9375 -15.769531 15.9375 -14.1875 C 15.9375 -12.601562 15.3125 -11.332031 14.0625 -10.375 C 12.820312 -9.414062 11.179688 -8.9375 9.140625 -8.9375 L 5.046875 -8.9375 L 5.046875 0 L 1.9375 0 L 2.71875 -19.4375 Z M 9.140625 -10.5 C 10.253906 -10.5 11.144531 -10.832031 11.8125 -11.5 C 12.488281 -12.175781 12.828125 -13.070312 12.828125 -14.1875 C 12.828125 -15.300781 12.488281 -16.191406 11.8125 -16.859375 C 11.144531 -17.535156 10.253906 -17.875 9.140625 -17.875 L 5.046875 -17.875 L 5.046875 -10.5 Z M 9.140625 -10.5 "/></g></g></g><g fill="#ffffff" fill-opacity="1"><g transform="translate(147.851733, 327.344675)"><g><path d="M 5.046875 0 L 1.9375 0 L 2.71875 -19.4375 L 5.046875 -19.4375 Z M 5.046875 0 "/></g></g></g><g fill="#ffffff" fill-opacity="1"><g transform="translate(154.847666, 327.344675)"><g><path d="M 12.828125 -19.4375 L 5.671875 -1.5625 L 12.828125 -1.5625 L 12.828125 0 L 1.9375 0 L 9.796875 -17.875 L 1.9375 -17.875 L 1.9375 -19.4375 Z M 12.828125 -19.4375 "/></g></g></g><g fill="#ffffff" fill-opacity="1"><g transform="translate(169.616852, 327.344675)"><g><path d="M 12.828125 -19.4375 L 5.671875 -1.5625 L 12.828125 -1.5625 L 12.828125 0 L 1.9375 0 L 9.796875 -17.875 L 1.9375 -17.875 L 1.9375 -19.4375 Z M 12.828125 -19.4375 "/></g></g></g><g fill="#ffffff" fill-opacity="1"><g transform="translate(184.386038, 327.344675)"><g><path d="M 14.390625 0 L 12.828125 -5.046875 L 5.046875 -5.046875 L 3.5 0 L 0.390625 0 L 7.1875 -19.4375 L 10.6875 -19.4375 L 17.5 0 Z M 5.5625 -6.609375 L 12.328125 -6.609375 L 8.9375 -17.578125 Z M 5.5625 -6.609375 "/></g></g></g><g fill="#ffffff" fill-opacity="1"><g transform="translate(202.264522, 327.344675)"><g><path d="M 14.390625 0 L 9.40625 -8.9375 L 5.046875 -8.9375 L 5.046875 0 L 1.9375 0 L 2.71875 -19.4375 L 9.140625 -19.4375 C 11.179688 -19.4375 12.820312 -18.957031 14.0625 -18 C 15.3125 -17.039062 15.9375 -15.769531 15.9375 -14.1875 C 15.9375 -13.070312 15.613281 -12.097656 14.96875 -11.265625 C 14.320312 -10.441406 13.414062 -9.820312 12.25 -9.40625 L 17.5 0 Z M 9.140625 -10.5 C 10.253906 -10.5 11.144531 -10.832031 11.8125 -11.5 C 12.488281 -12.175781 12.828125 -13.070312 12.828125 -14.1875 C 12.828125 -15.300781 12.488281 -16.191406 11.8125 -16.859375 C 11.144531 -17.535156 10.253906 -17.875 9.140625 -17.875 L 5.046875 -17.875 L 5.046875 -10.5 Z M 9.140625 -10.5 "/></g></g></g><g fill="#ffffff" fill-opacity="1"><g transform="translate(220.143006, 327.344675)"><g><path d="M 5.046875 0 L 1.9375 0 L 2.71875 -19.4375 L 5.046875 -19.4375 Z M 5.046875 0 "/></g></g></g><g fill="#ffffff" fill-opacity="1"><g transform="translate(227.138939, 327.344675)"><g><path d="M 14.390625 0 L 12.828125 -5.046875 L 5.046875 -5.046875 L 3.5 0 L 0.390625 0 L 7.1875 -19.4375 L 10.6875 -19.4375 L 17.5 0 Z M 5.5625 -6.609375 L 12.328125 -6.609375 L 8.9375 -17.578125 Z M 5.5625 -6.609375 "/></g></g></g></svg>